<svg xmlns="http://www.w3.org/2000/svg" viewBox="0 0 1920 1080" fill="none">
  <defs>
    <linearGradient id="sky" x1="0" y1="0" x2="1" y2="1">
      <stop offset="0%" stop-color="#1e293b"/>
      <stop offset="55%" stop-color="#0f172a"/>
      <stop offset="100%" stop-color="#111827"/>
    </linearGradient>
    <linearGradient id="glow" x1="0.5" y1="0" x2="0.5" y2="1">
      <stop offset="0%" stop-color="#2563eb" stop-opacity="0.35"/>
      <stop offset="100%" stop-color="#2563eb" stop-opacity="0"/>
    </linearGradient>
    <linearGradient id="road" x1="0" y1="0" x2="0" y2="1">
      <stop offset="0%" stop-color="#334155"/>
      <stop offset="100%" stop-color="#1e293b"/>
    </linearGradient>
  </defs>
  <rect width="1920" height="1080" fill="url(#sky)"/>
  <ellipse cx="960" cy="420" rx="520" ry="280" fill="url(#glow)"/>
  <rect y="760" width="1920" height="320" fill="url(#road)"/>
  <path d="M960 120 L980 760 L940 760 Z" fill="#475569" opacity="0.25"/>
  <g transform="translate(560 430)">
    <rect x="0" y="120" width="800" height="180" rx="36" fill="#334155"/>
    <rect x="40" y="80" width="520" height="140" rx="28" fill="#475569"/>
    <rect x="600" y="95" width="160" height="125" rx="20" fill="#64748b"/>
    <circle cx="180" cy="300" r="56" fill="#0f172a" stroke="#64748b" stroke-width="10"/>
    <circle cx="620" cy="300" r="56" fill="#0f172a" stroke="#64748b" stroke-width="10"/>
    <rect x="120" y="145" width="280" height="70" rx="12" fill="#1e293b" opacity="0.55"/>
    <rect x="690" y="130" width="48" height="48" rx="8" fill="#fbbf24" opacity="0.85"/>
  </g>
  <circle cx="1520" cy="220" r="6" fill="#fbbf24" opacity="0.9"/>
  <circle cx="1560" cy="260" r="4" fill="#fbbf24" opacity="0.5"/>
  <circle cx="1480" cy="280" r="3" fill="#fbbf24" opacity="0.35"/>
</svg>
